<svg width="95" height="95" viewBox="0 0 95 95" fill="none" xmlns="http://www.w3.org/2000/svg">
<path fill-rule="evenodd" clip-rule="evenodd" d="M95 47.5C95 21.2664 73.7333 0 47.4994 0C21.2656 0 0 21.2664 0 47.5C0 73.7336 21.2656 95 47.4994 95C73.7333 95 95 73.7336 95 47.5ZM90.0544 47.5C90.0544 71.0024 71.0022 90.0544 47.4994 90.0544C23.9978 90.0544 4.94562 71.0024 4.94562 47.5C4.94562 23.9987 23.9978 4.94556 47.4994 4.94556C71.0022 4.94556 90.0544 23.9987 90.0544 47.5ZM80.8549 30.7427L80.7849 30.6443H76.9663L76.8951 30.6941L75.7013 34.2447C75.2786 35.5459 74.8287 37.1748 74.5663 38.1514C74.1991 36.778 73.8147 35.3752 73.4586 34.2731L72.2659 30.6952L72.1947 30.6443H68.9131L68.843 30.6941L67.6188 34.2447C67.2096 35.5368 66.7946 36.9973 66.4985 38.1922C66.1911 36.9578 65.7762 35.5075 65.3761 34.2731L64.2116 30.6952L64.1416 30.6443H60.1444L60.0744 30.7427L64.8175 44.3732L64.8877 44.4219H67.8392L67.9094 44.3732L69.4331 40.1059C69.787 39.0411 70.1329 37.982 70.4493 36.7735C70.8021 38.1357 71.1197 39.153 71.4984 40.1388L73.0199 44.3732L73.0901 44.4219H76.0416L76.1116 44.3732L80.8549 30.7427ZM58.2057 44.4219L58.2803 44.3484V35.3413C58.2803 32.3886 56.2376 30.4059 53.1957 30.4059C51.6797 30.4059 50.5425 30.7744 49.6315 31.5646V23.1124L49.5567 23.0378H45.2317L45.1571 23.1124V44.3484L45.2317 44.4219H49.5567L49.6315 44.3484V36.3541C49.6315 35.2746 50.529 34.49 51.7645 34.49C53.1335 34.49 53.7474 35.3967 53.7474 36.2953V44.3484L53.822 44.4219H58.2057ZM44.5445 67.1523C44.5445 68.8399 45.9135 70.2089 47.6011 70.2089C49.2901 70.2089 50.6578 68.8399 50.6578 67.1523C50.6578 65.4634 49.2901 64.0957 47.6011 64.0957C45.9135 64.0957 44.5445 65.4634 44.5445 67.1523ZM62.5624 63.0782C62.5624 67.4167 66.1301 70.1026 69.4376 70.1026C71.079 70.1026 72.4027 69.6572 73.107 68.8717L73.1805 69.6776L73.2539 69.7442H76.6837L76.7583 69.6696V48.4337L76.6837 48.3603H72.4491L72.3745 48.4337V56.1239C71.7844 55.821 70.958 55.6672 69.9136 55.6672C65.6541 55.6672 62.5624 58.7838 62.5624 63.0782ZM66.9167 62.8703C66.9167 60.9904 68.2428 59.5739 70.0028 59.5739C70.9693 59.5739 71.8319 59.8419 72.3745 60.3087V65.4283C71.7641 65.9043 70.9231 66.1665 70.0028 66.1665C68.2428 66.1665 66.9167 64.7489 66.9167 62.8703Z" />
</svg>
