<svg width="88" height="88" viewBox="0 0 88 88" fill="none" xmlns="http://www.w3.org/2000/svg">
<g clip-path="url(#clip0_51_1472)">
<path fill-rule="evenodd" clip-rule="evenodd" d="M88 44C88 19.6994 68.3003 0 43.9995 0C19.6987 0 0 19.6994 0 44C0 68.3006 19.6987 88 43.9995 88C68.3003 88 88 68.3006 88 44ZM83.4188 44C83.4188 65.7707 65.7704 83.4188 43.9995 83.4188C22.2296 83.4188 4.5812 65.7707 4.5812 44C4.5812 22.2304 22.2296 4.58115 43.9995 4.58115C65.7704 4.58115 83.4188 22.2304 83.4188 44ZM74.8972 28.4774L74.8324 28.3863H71.2951L71.2291 28.4324L70.1233 31.7214C69.7317 32.9268 69.315 34.4356 69.072 35.3403C68.7318 34.068 68.3757 32.7686 68.0459 31.7477L66.9411 28.4334L66.8751 28.3863H63.8353L63.7704 28.4324L62.6363 31.7214C62.2573 32.9183 61.8729 34.2712 61.5986 35.3781C61.3139 34.2346 60.9295 32.8912 60.5589 31.7477L59.4802 28.4334L59.4154 28.3863H55.7127L55.6478 28.4774L60.0415 41.1036L60.1065 41.1487H62.8405L62.9055 41.1036L64.317 37.1508C64.6448 36.1644 64.9652 35.1833 65.2583 34.0639C65.5851 35.3257 65.8793 36.268 66.2301 37.1812L67.6395 41.1036L67.7045 41.1487H70.4386L70.5034 41.1036L74.8972 28.4774ZM53.9168 41.1487L53.9859 41.0806V32.7372C53.9859 30.002 52.0938 28.1654 49.276 28.1654C47.8717 28.1654 46.8183 28.5068 45.9744 29.2388V21.4094L45.9052 21.3403H41.8989L41.8298 21.4094V41.0806L41.8989 41.1487H45.9052L45.9744 41.0806V33.6754C45.9744 32.6754 46.8058 31.9487 47.9503 31.9487C49.2184 31.9487 49.787 32.7885 49.787 33.6209V41.0806L49.8561 41.1487H53.9168ZM41.2623 62.2042C41.2623 63.7675 42.5304 65.0356 44.0937 65.0356C45.6582 65.0356 46.9251 63.7675 46.9251 62.2042C46.9251 60.6398 45.6582 59.3728 44.0937 59.3728C42.5304 59.3728 41.2623 60.6398 41.2623 62.2042ZM57.9525 58.4303C57.9525 62.4492 61.2573 64.9371 64.3211 64.9371C65.8416 64.9371 67.0678 64.5246 67.7201 63.7969L67.7882 64.5435L67.8563 64.6052H71.0333L71.1024 64.5361V44.8649L71.0333 44.7969H67.1107L67.0416 44.8649V51.9885C66.495 51.7079 65.7295 51.5654 64.762 51.5654C60.8164 51.5654 57.9525 54.4523 57.9525 58.4303ZM61.986 58.2378C61.986 56.4964 63.2144 55.1843 64.8447 55.1843C65.74 55.1843 66.539 55.4325 67.0416 55.8649V60.6073C66.4762 61.0482 65.6972 61.2911 64.8447 61.2911C63.2144 61.2911 61.986 59.978 61.986 58.2378Z" fill="#0A08C3" fill-opacity="0.3"/>
</g>
<defs>
<clipPath id="clip0_51_1472">
<rect width="88" height="88" fill="white"/>
</clipPath>
</defs>
</svg>
